<svg width="301" height="247" viewBox="0 0 301 247" fill="none" xmlns="http://www.w3.org/2000/svg">
<path d="M298.821 234.703H11.5V246.49H298.821V234.703Z" fill="#007AFF"/>
<path opacity="0.5" d="M298.821 234.703H11.5V246.49H298.821V234.703Z" fill="white"/>
<path d="M79.2562 107.92C77.8509 108.379 76.4712 108.913 75.1232 109.519C75.8599 108.981 76.5966 108.421 77.3333 107.854C80.6134 105.216 83.7351 102.387 86.6823 99.3818C83.2239 102.741 79.531 105.851 75.6315 108.687C76.1691 107.753 76.6417 106.783 77.046 105.784C77.7827 103.949 77.9153 102.1 76.1693 101.12C74.0107 99.9122 71.4027 101.717 72.0879 104.804C72.5061 106.527 73.3209 108.129 74.4675 109.482C71.9227 111.244 69.2648 112.836 66.5109 114.249L66.2531 114.381C66.8352 113.373 67.3496 112.327 67.7928 111.25C68.4853 109.423 68.6621 107.567 66.9087 106.594C64.7501 105.379 62.1421 107.191 62.8347 110.278C63.2458 111.978 64.0423 113.561 65.1627 114.905C61.8548 116.533 58.4364 117.918 55.0328 119.421L54.5392 119.642C55.2035 118.928 55.8211 118.173 56.3883 117.38C57.4934 115.759 58.0902 114.006 56.6167 112.643C54.8044 110.963 51.8354 112.112 51.7912 115.295C51.7932 117.052 52.2017 118.784 52.9847 120.356C49.7997 121.844 46.7735 123.651 43.9525 125.749L43.8641 125.823C44.2457 125.218 44.5949 124.593 44.9102 123.951C45.7427 122.176 46.0522 120.349 44.3724 119.236C44.0311 119.002 43.641 118.847 43.2315 118.785C42.8219 118.723 42.4036 118.754 42.0079 118.877C41.6123 119 41.2496 119.21 40.9471 119.493C40.6446 119.776 40.4102 120.124 40.2615 120.511C40.0401 120.165 39.7396 119.878 39.3848 119.671C37.6977 118.699 36.0401 119.752 34.6182 121.24C34.2499 121.631 33.8815 122.051 33.5647 122.463C34.6616 119.419 36.0403 116.484 37.683 113.696C39.2473 114.38 40.9341 114.738 42.6411 114.75C46.0006 114.75 47.4151 111.95 45.7648 110.212C44.424 108.804 42.538 109.342 40.7551 110.374C40.1681 110.716 39.5999 111.09 39.0533 111.493C40.7611 108.921 42.6993 106.51 44.8439 104.288C46.2492 105.425 47.8823 106.247 49.6326 106.697C52.8963 107.5 54.9444 105.136 53.7656 103.051C52.8079 101.356 50.8187 101.423 48.8664 101.99C47.9319 102.269 47.0165 102.609 46.1258 103.006C47.0173 102.137 47.9382 101.305 48.8738 100.48C50.0967 99.4334 51.3639 98.4241 52.6532 97.4369C54.0394 98.543 55.6436 99.3439 57.3608 99.787C60.6245 100.59 62.6726 98.2251 61.4938 96.1402C60.5361 94.4458 58.5469 94.5121 56.5873 95.0793C56.1305 95.212 55.6664 95.374 55.217 95.5435C56.9188 94.3279 58.6427 93.1418 60.374 91.963L61.9727 90.8653C63.4133 92.072 65.1044 92.9427 66.9235 93.4144C70.1871 94.2174 72.2426 91.8525 71.0638 89.7676C70.0987 88.0731 68.117 88.1394 66.1573 88.7067C65.3862 88.9425 64.6273 89.215 63.8808 89.5245L64.868 88.7878C65.4721 88.3531 66.0762 87.911 66.6656 87.4469C67.4023 86.8944 68.1022 86.2829 68.8168 85.6935C69.2294 85.3694 69.6199 85.0231 70.0103 84.6695C71.4567 85.889 73.1588 86.7677 74.9906 87.2406C78.2542 88.0437 80.3023 85.6788 79.1236 83.5939C78.1658 81.8994 76.1767 81.9657 74.2244 82.533C73.1295 82.8713 72.0568 83.2772 71.0123 83.7486C72.3457 82.5109 73.635 81.2216 74.858 79.8808C74.939 79.785 75.0127 79.6892 75.1011 79.6008C75.6241 79.0188 76.1398 78.4294 76.6408 77.818C77.1418 77.2065 77.7901 76.4035 78.3353 75.6667C80.574 72.7282 82.4169 69.5082 83.8165 66.0894C82.3497 69.4675 80.4449 72.6381 78.1511 75.5194C75.8824 78.4127 73.3494 81.0887 70.585 83.5128L70.2829 83.7707C70.9109 82.7012 71.4671 81.5913 71.9479 80.4481C72.6478 78.621 72.8172 76.7644 71.0638 75.792C68.9126 74.5764 66.2973 76.3887 66.9898 79.4756C67.4346 81.3034 68.3227 82.9937 69.5757 84.3969L68.9273 84.9568L68.1906 85.5904C67.7633 85.9366 67.3213 86.2682 66.8793 86.5997C66.6435 86.7765 66.4151 86.9607 66.1425 87.1375C65.5163 87.6016 64.8827 88.051 64.2418 88.4931L63.3209 89.1193L62.2747 89.856C62.8862 88.8123 63.4229 87.7266 63.8808 86.607C64.5807 84.7726 64.7501 82.9234 63.0041 81.951C60.8455 80.7354 58.2302 82.5477 58.9227 85.6346C59.3497 87.4077 60.1961 89.0525 61.3907 90.4306L60.654 90.9316L57.7881 92.8102L57.2208 93.1786L55.6222 94.2468L54.9296 94.711C54.1929 95.2193 53.4562 95.735 52.7195 96.2655C53.3114 95.2052 53.8284 94.1048 54.2666 92.9723C55.0033 91.1453 55.1359 89.2887 53.3899 88.3162C51.2313 87.1006 48.6233 88.913 49.3158 91.9998C49.7486 93.7967 50.6135 95.4608 51.8354 96.8475C50.583 97.7684 49.3453 98.7114 48.1518 99.6986C47.2751 100.435 46.4131 101.172 45.5659 101.968C45.935 101.285 46.2646 100.581 46.5531 99.8607C47.2456 98.0262 47.4225 96.1771 45.6691 95.2046C43.5105 93.989 40.9025 95.8013 41.595 98.8882C42.0062 100.588 42.8027 102.171 43.923 103.515C41.5369 105.886 39.3878 108.484 37.5062 111.272C37.7198 110.468 37.8822 109.651 37.9924 108.827C38.2282 106.882 37.9482 105.055 36.0106 104.524C33.6237 103.868 31.5314 106.255 32.9532 109.099C33.7712 110.665 34.9414 112.019 36.3716 113.055C34.5158 116.087 32.966 119.295 31.745 122.633C31.7132 121.935 31.6443 121.239 31.5387 120.548C31.2072 118.61 30.4263 116.938 28.415 116.975C25.9397 117.026 24.6062 119.922 26.7795 122.235C27.9386 123.443 29.3532 124.377 30.9199 124.968C30.082 127.545 29.4005 130.17 28.8792 132.829C28.7908 133.249 28.7245 133.669 28.6434 134.089C28.555 134.17 28.4666 134.251 28.3856 134.339C28.2972 133.978 28.194 133.603 28.0761 133.256C27.4573 131.4 26.4259 129.86 24.4441 130.214C22.0129 130.641 21.1362 133.691 23.6411 135.658C24.9141 136.63 26.3816 137.316 27.9435 137.669C27.9435 137.743 28.0025 137.809 28.0393 137.883C27.7667 139.879 27.5604 141.891 27.4352 143.909C27.3394 145.383 27.2879 146.922 27.2584 148.433C25.1514 148.433 23.6632 150.746 25.1145 153.251C25.727 154.289 26.5117 155.216 27.4352 155.991C27.612 158.828 27.892 161.664 28.2677 164.478C27.9698 164.203 27.6052 164.01 27.2099 163.918C26.8145 163.826 26.4022 163.839 26.0133 163.955C24.6872 164.316 24.0905 165.385 23.8768 166.696C23.4049 167.184 23.1409 167.837 23.1401 168.516C22.1529 167.042 21.2173 165.569 20.3111 164.014C21.6944 162.954 22.8411 161.617 23.6779 160.088C25.2619 157.141 23.4716 154.555 21.1657 155.181C19.2797 155.697 18.8671 157.612 18.9555 159.668C18.985 160.447 19.0588 161.225 19.1766 161.996L18.2041 160.287C17.3937 158.813 16.7306 157.34 15.935 155.866C15.7434 155.505 15.574 155.129 15.4193 154.761C16.9714 153.979 18.3438 152.883 19.4491 151.542C21.5635 148.934 20.289 146.068 17.902 146.252C15.9571 146.407 15.1835 148.212 14.8594 150.245C14.733 151.132 14.6543 152.024 14.6236 152.919L13.9311 151.321C12.4561 147.694 11.2424 143.966 10.2991 140.167C12.0559 139.544 13.6516 138.537 14.9699 137.22C17.3348 134.825 16.3549 131.856 13.9606 131.798C12.0156 131.753 11.0653 133.47 10.5348 135.481C10.2748 136.549 10.0805 137.631 9.9528 138.723C9.4371 136.542 8.99506 134.332 8.6267 132.092C8.37622 130.722 8.21414 129.33 8.04469 127.944C9.93303 127.57 11.7116 126.772 13.2459 125.609C15.8981 123.546 15.3161 120.452 12.9439 120.106C11.021 119.804 9.85703 121.388 9.0761 123.296C8.61889 124.499 8.23509 125.729 7.92682 126.979C7.77947 125.373 7.61003 123.76 7.53636 122.146C7.31535 118.815 7.31535 115.473 7.53636 112.142C7.20005 115.47 7.08437 118.817 7.1901 122.161C7.1901 123.701 7.32271 125.233 7.41848 126.773C6.9976 125.726 6.5053 124.71 5.94504 123.73C4.9431 122.043 3.60226 120.784 1.74573 121.52C-0.545478 122.463 -0.744393 125.631 2.12882 127.016C3.814 127.79 5.66255 128.142 7.51426 128.04C7.64687 129.418 7.76474 130.788 7.97102 132.151C8.25834 134.361 8.6267 136.483 9.06137 138.627C8.58992 137.806 8.06575 137.016 7.49215 136.262C6.27656 134.722 4.78838 133.632 3.07182 134.627C0.927964 135.857 1.13425 139.047 4.16217 140.027C5.87555 140.559 7.69026 140.68 9.4592 140.38C10.2997 144.222 11.405 148 12.7671 151.689L13.2017 152.794C12.812 152.278 12.3913 151.786 11.9419 151.321C10.579 149.906 8.99506 148.971 7.35218 150.142C5.34093 151.615 5.87873 154.71 8.97296 155.402C10.6806 155.748 12.4449 155.697 14.13 155.255C14.2847 155.63 14.4394 155.991 14.6236 156.375C15.3603 157.892 16.016 159.447 16.7896 160.935L17.4305 162.224C17.0474 161.893 16.6496 161.576 16.237 161.281C14.631 160.154 12.8923 159.535 11.5073 160.986C9.79809 162.777 10.9032 165.753 14.0858 165.849C15.7427 165.887 17.3878 165.56 18.904 164.891C19.8175 166.541 20.7531 168.169 21.7698 169.768C22.1455 170.38 22.5065 170.984 22.9338 171.588C22.3559 171.059 21.7457 170.567 21.1068 170.114C19.5007 168.987 17.762 168.368 16.3696 169.82C14.6678 171.61 15.7729 174.586 18.9555 174.682C20.7746 174.704 22.5727 174.292 24.201 173.481C24.7314 174.218 25.2766 174.955 25.8365 175.691C24.6504 177.069 25.0409 179.375 27.4499 180.429C28.62 180.916 29.8671 181.193 31.1335 181.246C31.2809 181.364 31.4282 181.482 31.5903 181.593L31.664 181.651C33.1865 187.339 34.9915 192.943 37.0789 198.463C37.9629 200.814 38.9133 203.142 39.8932 205.455H31.0525V240.317H58.0681V205.425H43.6873C42.457 202.736 41.2708 200.018 40.1657 197.27C38.3608 192.761 36.7253 188.179 35.3034 183.53C35.5453 183.601 35.7914 183.658 36.0401 183.7C36.3673 183.766 36.7029 183.781 37.0347 183.744L36.6516 181.32H36.3937C36.2401 181.298 36.0876 181.269 35.937 181.232C35.5966 181.134 35.2642 181.011 34.9424 180.863L34.5593 180.686C35.9811 180.191 37.3015 179.442 38.4566 178.476C41.013 176.266 40.291 173.245 37.904 172.988C35.9738 172.774 34.8835 174.41 34.2204 176.347C34.0215 176.9 33.8594 177.474 33.7194 178.034C33.5795 177.518 33.4395 177.003 33.3069 176.487C32.9164 174.962 32.5701 173.422 32.2165 171.883C33.7596 171.401 35.1936 170.623 36.4379 169.591C38.9944 167.381 38.265 164.368 35.8854 164.11C33.9478 163.896 32.8648 165.532 32.2018 167.47C32.0029 168.029 31.8334 168.612 31.6861 169.186C31.4651 168.066 31.2514 166.939 31.0525 165.812C30.9125 164.979 30.7799 164.14 30.6547 163.3C30.6105 162.106 30.5884 160.913 30.6031 159.712C30.6031 159.056 30.6031 158.401 30.662 157.745C32.1064 158.201 33.6213 158.393 35.1339 158.312C38.4934 158.091 39.7311 155.218 37.9777 153.59C36.5484 152.256 34.6993 152.919 32.9827 154.054C32.2129 154.577 31.4749 155.145 30.7725 155.756C30.9794 152.952 31.4056 150.168 32.0471 147.431C32.423 145.818 32.8929 144.229 33.4542 142.672C34.9946 143.203 36.6233 143.43 38.2503 143.342C41.6097 143.128 42.8474 140.255 41.094 138.62C39.6721 137.293 37.8156 137.949 36.099 139.091C35.4998 139.503 34.9243 139.948 34.3751 140.425C35.0229 138.9 35.7762 137.423 36.6295 136.004C38.3217 133.141 40.4436 130.554 42.9211 128.335C44.205 129.519 45.7235 130.42 47.3782 130.98C50.5756 132.026 52.7932 129.816 51.7986 127.65C50.9661 125.889 49.0064 125.808 46.9878 126.228C46.2099 126.394 45.4424 126.606 44.6892 126.862L44.7408 126.817C47.4899 124.672 50.4523 122.816 53.5814 121.277C54.6854 122.723 56.0874 123.914 57.6923 124.769C60.6834 126.309 63.2251 124.482 62.5621 122.183C62.0243 120.312 60.1014 119.922 58.046 119.973C57.2387 120.017 56.4344 120.106 55.6369 120.238C58.9595 118.669 62.3484 117.188 65.6195 115.457H65.6931C67.1576 116.721 68.895 117.629 70.7691 118.109C74.0328 118.92 76.0809 116.547 74.9022 114.426C73.9444 112.731 71.9553 112.805 70.003 113.365C69.4504 113.527 68.8979 113.726 68.3601 113.932C70.5445 112.662 72.6618 111.28 74.7032 109.792L74.8727 109.976V109.88C76.3517 111.156 78.1032 112.075 79.9929 112.569C83.2492 113.372 85.3047 111.007 84.1259 108.886C83.1976 107.287 81.238 107.353 79.2562 107.92ZM27.7446 174.675C27.0742 173.894 26.4406 173.076 25.8218 172.251C25.9691 172.118 26.1312 171.971 26.2933 171.809C27.2139 172.096 28.1667 172.267 29.1297 172.317V172.472L29.5791 172.376C29.8148 173.54 30.0579 174.697 30.3158 175.853C30.0164 175.462 29.6254 175.149 29.1771 174.944C28.7288 174.738 28.2369 174.646 27.7446 174.675ZM30.1463 146.937C29.918 147.806 29.7264 148.676 29.5422 149.553L29.4317 149.398C29.4317 147.6 29.4587 145.808 29.5128 144.02C29.5643 142.767 29.6527 141.522 29.7632 140.27C30.3694 140.887 31.0358 141.443 31.7524 141.927C31.1288 143.567 30.5952 145.239 30.1537 146.937H30.1463ZM33.1669 138.686C33.2111 138.362 33.2479 138.03 33.2627 137.706V137.212C33.5279 137.131 33.8005 137.036 34.0657 136.925C33.771 137.507 33.4616 138.096 33.1743 138.686H33.1669ZM37.0052 132.461C36.8779 132.169 36.6928 131.907 36.4611 131.689C36.2293 131.471 35.9558 131.302 35.657 131.193C33.8373 130.457 32.3639 131.783 31.1925 133.477L31.1335 133.558H31.0157C30.8921 133.53 30.7664 133.513 30.6399 133.507C30.6312 133.403 30.649 133.299 30.6915 133.205C31.1579 130.543 31.7878 127.913 32.5775 125.329C34.2687 125.544 35.986 125.411 37.6241 124.939C38.6361 124.673 39.5163 124.047 40.0994 123.178C40.4237 124.663 41.0425 126.069 41.9191 127.311C40.1067 128.852 38.4621 130.581 37.0126 132.468L37.0052 132.461Z" fill="#444150"/>
<path opacity="0.3" d="M79.2562 107.92C77.8509 108.379 76.4712 108.913 75.1232 109.519C75.8599 108.981 76.5966 108.421 77.3333 107.854C80.6134 105.216 83.7351 102.387 86.6823 99.3818C83.2239 102.741 79.531 105.851 75.6315 108.687C76.1691 107.753 76.6417 106.783 77.046 105.784C77.7827 103.949 77.9153 102.1 76.1693 101.12C74.0107 99.9122 71.4027 101.717 72.0879 104.804C72.5061 106.527 73.3209 108.129 74.4675 109.482C71.9227 111.244 69.2648 112.836 66.5109 114.249L66.2531 114.381C66.8352 113.373 67.3496 112.327 67.7928 111.25C68.4853 109.423 68.6621 107.567 66.9087 106.594C64.7501 105.379 62.1421 107.191 62.8347 110.278C63.2458 111.978 64.0423 113.561 65.1627 114.905C61.8548 116.533 58.4364 117.918 55.0328 119.421L54.5392 119.642C55.2035 118.928 55.8211 118.173 56.3883 117.38C57.4934 115.759 58.0902 114.006 56.6167 112.643C54.8044 110.963 51.8354 112.112 51.7912 115.295C51.7932 117.052 52.2017 118.784 52.9847 120.356C49.7997 121.844 46.7735 123.651 43.9525 125.749L43.8641 125.823C44.2457 125.218 44.5949 124.593 44.9102 123.951C45.7427 122.176 46.0522 120.349 44.3724 119.236C44.0311 119.002 43.641 118.847 43.2315 118.785C42.8219 118.723 42.4036 118.754 42.0079 118.877C41.6123 119 41.2496 119.21 40.9471 119.493C40.6446 119.776 40.4102 120.124 40.2615 120.511C40.0401 120.165 39.7396 119.878 39.3848 119.671C37.6977 118.699 36.0401 119.752 34.6182 121.24C34.2499 121.631 33.8815 122.051 33.5647 122.463C34.6616 119.419 36.0403 116.484 37.683 113.696C39.2473 114.38 40.9341 114.738 42.6411 114.75C46.0006 114.75 47.4151 111.95 45.7648 110.212C44.424 108.804 42.538 109.342 40.7551 110.374C40.1681 110.716 39.5999 111.09 39.0533 111.493C40.7611 108.921 42.6993 106.51 44.8439 104.288C46.2492 105.425 47.8823 106.247 49.6326 106.697C52.8963 107.5 54.9444 105.136 53.7656 103.051C52.8079 101.356 50.8187 101.423 48.8664 101.99C47.9319 102.269 47.0165 102.609 46.1258 103.006C47.0173 102.137 47.9382 101.305 48.8738 100.48C50.0967 99.4334 51.3639 98.4241 52.6532 97.4369C54.0394 98.543 55.6436 99.3439 57.3608 99.787C60.6245 100.59 62.6726 98.2251 61.4938 96.1402C60.5361 94.4458 58.5469 94.5121 56.5873 95.0793C56.1305 95.212 55.6664 95.374 55.217 95.5435C56.9188 94.3279 58.6427 93.1418 60.374 91.963L61.9727 90.8653C63.4133 92.072 65.1044 92.9427 66.9235 93.4144C70.1871 94.2174 72.2426 91.8525 71.0638 89.7676C70.0987 88.0731 68.117 88.1394 66.1573 88.7067C65.3862 88.9425 64.6273 89.215 63.8808 89.5245L64.868 88.7878C65.4721 88.3531 66.0762 87.911 66.6656 87.4469C67.4023 86.8944 68.1022 86.2829 68.8168 85.6935C69.2294 85.3694 69.6199 85.0231 70.0103 84.6695C71.4567 85.889 73.1588 86.7677 74.9906 87.2406C78.2542 88.0437 80.3023 85.6788 79.1236 83.5939C78.1658 81.8994 76.1767 81.9657 74.2244 82.533C73.1295 82.8713 72.0568 83.2772 71.0123 83.7486C72.3457 82.5109 73.635 81.2216 74.858 79.8808C74.939 79.785 75.0127 79.6892 75.1011 79.6008C75.6241 79.0188 76.1398 78.4294 76.6408 77.818C77.1418 77.2065 77.7901 76.4035 78.3353 75.6667C80.574 72.7282 82.4169 69.5082 83.8165 66.0894C82.3497 69.4675 80.4449 72.6381 78.1511 75.5194C75.8824 78.4127 73.3494 81.0887 70.585 83.5128L70.2829 83.7707C70.9109 82.7012 71.4671 81.5913 71.9479 80.4481C72.6478 78.621 72.8172 76.7644 71.0638 75.792C68.9126 74.5764 66.2973 76.3887 66.9898 79.4756C67.4346 81.3034 68.3227 82.9937 69.5757 84.3969L68.9273 84.9568L68.1906 85.5904C67.7633 85.9366 67.3213 86.2682 66.8793 86.5997C66.6435 86.7765 66.4151 86.9607 66.1425 87.1375C65.5163 87.6016 64.8827 88.051 64.2418 88.4931L63.3209 89.1193L62.2747 89.856C62.8862 88.8123 63.4229 87.7266 63.8808 86.607C64.5807 84.7726 64.7501 82.9234 63.0041 81.951C60.8455 80.7354 58.2302 82.5477 58.9227 85.6346C59.3497 87.4077 60.1961 89.0525 61.3907 90.4306L60.654 90.9316L57.7881 92.8102L57.2208 93.1786L55.6222 94.2468L54.9296 94.711C54.1929 95.2193 53.4562 95.735 52.7195 96.2655C53.3114 95.2052 53.8284 94.1048 54.2666 92.9723C55.0033 91.1453 55.1359 89.2887 53.3899 88.3162C51.2313 87.1006 48.6233 88.913 49.3158 91.9998C49.7486 93.7967 50.6135 95.4608 51.8354 96.8475C50.583 97.7684 49.3453 98.7114 48.1518 99.6986C47.2751 100.435 46.4131 101.172 45.5659 101.968C45.935 101.285 46.2646 100.581 46.5531 99.8607C47.2456 98.0262 47.4225 96.1771 45.6691 95.2046C43.5105 93.989 40.9025 95.8013 41.595 98.8882C42.0062 100.588 42.8027 102.171 43.923 103.515C41.5369 105.886 39.3878 108.484 37.5062 111.272C37.7198 110.468 37.8822 109.651 37.9924 108.827C38.2282 106.882 37.9482 105.055 36.0106 104.524C33.6237 103.868 31.5314 106.255 32.9532 109.099C33.7712 110.665 34.9414 112.019 36.3716 113.055C34.5158 116.087 32.966 119.295 31.745 122.633C31.7132 121.935 31.6443 121.239 31.5387 120.548C31.2072 118.61 30.4263 116.938 28.415 116.975C25.9397 117.026 24.6062 119.922 26.7795 122.235C27.9386 123.443 29.3532 124.377 30.9199 124.968C30.082 127.545 29.4005 130.17 28.8792 132.829C28.7908 133.249 28.7245 133.669 28.6434 134.089C28.555 134.17 28.4666 134.251 28.3856 134.339C28.2972 133.978 28.194 133.603 28.0761 133.256C27.4573 131.4 26.4259 129.86 24.4441 130.214C22.0129 130.641 21.1362 133.691 23.6411 135.658C24.9141 136.63 26.3816 137.316 27.9435 137.669C27.9435 137.743 28.0025 137.809 28.0393 137.883C27.7667 139.879 27.5604 141.891 27.4352 143.909C27.3394 145.383 27.2879 146.922 27.2584 148.433C25.1514 148.433 23.6632 150.746 25.1145 153.251C25.727 154.289 26.5117 155.216 27.4352 155.991C27.612 158.828 27.892 161.664 28.2677 164.478C27.9698 164.203 27.6052 164.01 27.2099 163.918C26.8145 163.826 26.4022 163.839 26.0133 163.955C24.6872 164.316 24.0905 165.385 23.8768 166.696C23.4049 167.184 23.1409 167.837 23.1401 168.516C22.1529 167.042 21.2173 165.569 20.3111 164.014C21.6944 162.954 22.8411 161.617 23.6779 160.088C25.2619 157.141 23.4716 154.555 21.1657 155.181C19.2797 155.697 18.8671 157.612 18.9555 159.668C18.985 160.447 19.0588 161.225 19.1766 161.996L18.2041 160.287C17.3937 158.813 16.7306 157.34 15.935 155.866C15.7434 155.505 15.574 155.129 15.4193 154.761C16.9714 153.979 18.3438 152.883 19.4491 151.542C21.5635 148.934 20.289 146.068 17.902 146.252C15.9571 146.407 15.1835 148.212 14.8594 150.245C14.733 151.132 14.6543 152.024 14.6236 152.919L13.9311 151.321C12.4561 147.694 11.2424 143.966 10.2991 140.167C12.0559 139.544 13.6516 138.537 14.9699 137.22C17.3348 134.825 16.3549 131.856 13.9606 131.798C12.0156 131.753 11.0653 133.47 10.5348 135.481C10.2748 136.549 10.0805 137.631 9.9528 138.723C9.4371 136.542 8.99506 134.332 8.6267 132.092C8.37622 130.722 8.21414 129.33 8.04469 127.944C9.93303 127.57 11.7116 126.772 13.2459 125.609C15.8981 123.546 15.3161 120.452 12.9439 120.106C11.021 119.804 9.85703 121.388 9.0761 123.296C8.61889 124.499 8.23509 125.729 7.92682 126.979C7.77947 125.373 7.61003 123.76 7.53636 122.146C7.31535 118.815 7.31535 115.473 7.53636 112.142C7.20005 115.47 7.08437 118.817 7.1901 122.161C7.1901 123.701 7.32271 125.233 7.41848 126.773C6.9976 125.726 6.5053 124.71 5.94504 123.73C4.9431 122.043 3.60226 120.784 1.74573 121.52C-0.545478 122.463 -0.744393 125.631 2.12882 127.016C3.814 127.79 5.66255 128.142 7.51426 128.04C7.64687 129.418 7.76474 130.788 7.97102 132.151C8.25834 134.361 8.6267 136.483 9.06137 138.627C8.58992 137.806 8.06575 137.016 7.49215 136.262C6.27656 134.722 4.78838 133.632 3.07182 134.627C0.927964 135.857 1.13425 139.047 4.16217 140.027C5.87555 140.559 7.69026 140.68 9.4592 140.38C10.2997 144.222 11.405 148 12.7671 151.689L13.2017 152.794C12.812 152.278 12.3913 151.786 11.9419 151.321C10.579 149.906 8.99506 148.971 7.35218 150.142C5.34093 151.615 5.87873 154.71 8.97296 155.402C10.6806 155.748 12.4449 155.697 14.13 155.255C14.2847 155.63 14.4394 155.991 14.6236 156.375C15.3603 157.892 16.016 159.447 16.7896 160.935L17.4305 162.224C17.0474 161.893 16.6496 161.576 16.237 161.281C14.631 160.154 12.8923 159.535 11.5073 160.986C9.79809 162.777 10.9032 165.753 14.0858 165.849C15.7427 165.887 17.3878 165.56 18.904 164.891C19.8175 166.541 20.7531 168.169 21.7698 169.768C22.1455 170.38 22.5065 170.984 22.9338 171.588C22.3559 171.059 21.7457 170.567 21.1068 170.114C19.5007 168.987 17.762 168.368 16.3696 169.82C14.6678 171.61 15.7729 174.586 18.9555 174.682C20.7746 174.704 22.5727 174.292 24.201 173.481C24.7314 174.218 25.2766 174.955 25.8365 175.691C24.6504 177.069 25.0409 179.375 27.4499 180.429C28.62 180.916 29.8671 181.193 31.1335 181.246C31.2809 181.364 31.4282 181.482 31.5903 181.593L31.664 181.651C33.1865 187.339 34.9915 192.943 37.0789 198.463C37.9629 200.814 38.9133 203.142 39.8932 205.455H31.0525V240.317H58.0681V205.425H43.6873C42.457 202.736 41.2708 200.018 40.1657 197.27C38.3608 192.761 36.7253 188.179 35.3034 183.53C35.5453 183.601 35.7914 183.658 36.0401 183.7C36.3673 183.766 36.7029 183.781 37.0347 183.744L36.6516 181.32H36.3937C36.2401 181.298 36.0876 181.269 35.937 181.232C35.5966 181.134 35.2642 181.011 34.9424 180.863L34.5593 180.686C35.9811 180.191 37.3015 179.442 38.4566 178.476C41.013 176.266 40.291 173.245 37.904 172.988C35.9738 172.774 34.8835 174.41 34.2204 176.347C34.0215 176.9 33.8594 177.474 33.7194 178.034C33.5795 177.518 33.4395 177.003 33.3069 176.487C32.9164 174.962 32.5701 173.422 32.2165 171.883C33.7596 171.401 35.1936 170.623 36.4379 169.591C38.9944 167.381 38.265 164.368 35.8854 164.11C33.9478 163.896 32.8648 165.532 32.2018 167.47C32.0029 168.029 31.8334 168.612 31.6861 169.186C31.4651 168.066 31.2514 166.939 31.0525 165.812C30.9125 164.979 30.7799 164.14 30.6547 163.3C30.6105 162.106 30.5884 160.913 30.6031 159.712C30.6031 159.056 30.6031 158.401 30.662 157.745C32.1064 158.201 33.6213 158.393 35.1339 158.312C38.4934 158.091 39.7311 155.218 37.9777 153.59C36.5484 152.256 34.6993 152.919 32.9827 154.054C32.2129 154.577 31.4749 155.145 30.7725 155.756C30.9794 152.952 31.4056 150.168 32.0471 147.431C32.423 145.818 32.8929 144.229 33.4542 142.672C34.9946 143.203 36.6233 143.43 38.2503 143.342C41.6097 143.128 42.8474 140.255 41.094 138.62C39.6721 137.293 37.8156 137.949 36.099 139.091C35.4998 139.503 34.9243 139.948 34.3751 140.425C35.0229 138.9 35.7762 137.423 36.6295 136.004C38.3217 133.141 40.4436 130.554 42.9211 128.335C44.205 129.519 45.7235 130.42 47.3782 130.98C50.5756 132.026 52.7932 129.816 51.7986 127.65C50.9661 125.889 49.0064 125.808 46.9878 126.228C46.2099 126.394 45.4424 126.606 44.6892 126.862L44.7408 126.817C47.4899 124.672 50.4523 122.816 53.5814 121.277C54.6854 122.723 56.0874 123.914 57.6923 124.769C60.6834 126.309 63.2251 124.482 62.5621 122.183C62.0243 120.312 60.1014 119.922 58.046 119.973C57.2387 120.017 56.4344 120.106 55.6369 120.238C58.9595 118.669 62.3484 117.188 65.6195 115.457H65.6931C67.1576 116.721 68.895 117.629 70.7691 118.109C74.0328 118.92 76.0809 116.547 74.9022 114.426C73.9444 112.731 71.9553 112.805 70.003 113.365C69.4504 113.527 68.8979 113.726 68.3601 113.932C70.5445 112.662 72.6618 111.28 74.7032 109.792L74.8727 109.976V109.88C76.3517 111.156 78.1032 112.075 79.9929 112.569C83.2492 113.372 85.3047 111.007 84.1259 108.886C83.1976 107.287 81.238 107.353 79.2562 107.92ZM27.7446 174.675C27.0742 173.894 26.4406 173.076 25.8218 172.251C25.9691 172.118 26.1312 171.971 26.2933 171.809C27.2139 172.096 28.1667 172.267 29.1297 172.317V172.472L29.5791 172.376C29.8148 173.54 30.0579 174.697 30.3158 175.853C30.0164 175.462 29.6254 175.149 29.1771 174.944C28.7288 174.738 28.2369 174.646 27.7446 174.675ZM30.1463 146.937C29.918 147.806 29.7264 148.676 29.5422 149.553L29.4317 149.398C29.4317 147.6 29.4587 145.808 29.5128 144.02C29.5643 142.767 29.6527 141.522 29.7632 140.27C30.3694 140.887 31.0358 141.443 31.7524 141.927C31.1288 143.567 30.5952 145.239 30.1537 146.937H30.1463ZM33.1669 138.686C33.2111 138.362 33.2479 138.03 33.2627 137.706V137.212C33.5279 137.131 33.8005 137.036 34.0657 136.925C33.771 137.507 33.4616 138.096 33.1743 138.686H33.1669ZM37.0052 132.461C36.8779 132.169 36.6928 131.907 36.4611 131.689C36.2293 131.471 35.9558 131.302 35.657 131.193C33.8373 130.457 32.3639 131.783 31.1925 133.477L31.1335 133.558H31.0157C30.8921 133.53 30.7664 133.513 30.6399 133.507C30.6312 133.403 30.649 133.299 30.6915 133.205C31.1579 130.543 31.7878 127.913 32.5775 125.329C34.2687 125.544 35.986 125.411 37.6241 124.939C38.6361 124.673 39.5163 124.047 40.0994 123.178C40.4237 124.663 41.0425 126.069 41.9191 127.311C40.1067 128.852 38.4621 130.581 37.0126 132.468L37.0052 132.461Z" fill="white"/>
<path d="M260.91 208.174C260.91 208.174 257.344 200.21 256.489 199.392C255.635 198.574 248.805 196.099 246.912 189.814C245.019 183.53 241.423 166.755 250.485 167.853C259.547 168.95 257.344 186.521 260.637 185.969C263.93 185.416 257.896 157.428 263.658 153.553C269.419 149.678 278.753 153.28 277.655 168.103C276.558 182.926 274.362 191.428 276.285 190.61C278.208 189.792 283.696 186.764 283.696 193.078C283.696 199.392 278.48 203.783 275.46 204.055C272.439 204.328 271.04 204.608 271.04 204.608V208.719L260.91 208.174Z" fill="#444150" stroke="#444150" stroke-linecap="round" stroke-linejoin="round"/>
<path d="M258.007 192.739C255.937 190.779 254.036 188.879 253.159 187.133C251.421 183.648 250.109 173.872 250.109 173.872" stroke="white" stroke-width="0.5" stroke-linecap="round" stroke-linejoin="round"/>
<path d="M247.022 178.646C248.393 184.355 248.584 188.658 252.725 193.667C254.935 196.379 260.784 198.677 261.44 201.071C262.027 203.952 262.467 206.861 262.759 209.787L266.03 210.008C266.03 210.008 266.693 204.335 264.822 200.291" stroke="white" stroke-width="0.5" stroke-linecap="round" stroke-linejoin="round"/>
<path d="M247.936 169.488C247.936 169.488 245.49 171.367 246.359 175.993" stroke="white" stroke-width="0.5" stroke-linecap="round" stroke-linejoin="round"/>
<path d="M263.606 186.337L262.309 188.437" stroke="white" stroke-width="0.5" stroke-linecap="round" stroke-linejoin="round"/>
<path d="M264.055 185.608L263.606 186.337" stroke="white" stroke-width="0.5" stroke-linecap="round" stroke-linejoin="round"/>
<path d="M268.409 154.238C268.409 154.238 263.4 154.024 263.4 158.813C263.4 162.858 264.637 176.664 264.372 182.978" stroke="white" stroke-width="0.5" stroke-linecap="round" stroke-linejoin="round"/>
<path d="M272.336 193.469C272.218 195.111 272.145 196.275 272.145 196.717C272.145 199.112 278.237 189.962 281.074 189.748C281.074 189.748 283.903 189.527 282.812 194.758C282.416 196.699 281.497 198.496 280.154 199.954C278.812 201.412 277.097 202.476 275.195 203.031C272.793 203.687 270.833 202.596 270.399 203.687C270.052 204.969 269.832 206.281 269.743 207.606" stroke="white" stroke-width="0.5" stroke-linecap="round" stroke-linejoin="round"/>
<path d="M273.758 158.784C274.137 160.364 274.315 161.985 274.288 163.609C274.288 168.707 273.316 180.731 272.668 188.849" stroke="white" stroke-width="0.5" stroke-linecap="round" stroke-linejoin="round"/>
<path d="M271.238 154.68C271.893 155.055 272.423 155.613 272.763 156.286" stroke="white" stroke-width="0.5" stroke-linecap="round" stroke-linejoin="round"/>
<path d="M267.695 192.142L267.54 195.192" stroke="white" stroke-width="0.5" stroke-linecap="round" stroke-linejoin="round"/>
<path d="M268.844 157.288C268.844 157.288 267.54 157.723 267.975 162.298C268.336 166.077 267.975 183.235 267.805 189.092" stroke="white" stroke-width="0.5" stroke-linecap="round" stroke-linejoin="round"/>
<path d="M282.569 191.052C280.701 194.548 277.708 197.313 274.075 198.898C268.181 201.292 267.975 200.202 267.975 202.582C267.975 204.961 267.754 209.337 267.754 209.337" stroke="white" stroke-width="0.5" stroke-linecap="round" stroke-linejoin="round"/>
<path d="M274.399 240.294H255.362L251.288 212.719H278.473L274.399 240.294Z" fill="#444150" stroke="#444150" stroke-linecap="round" stroke-linejoin="round"/>
<path d="M280.808 208.372H248.953V215.754H280.808V208.372Z" fill="#444150" stroke="#444150" stroke-linecap="round" stroke-linejoin="round"/>
<path d="M169.873 221.729V206.759H125.788V221.729C125.781 226.605 124.13 231.337 121.102 235.16L119.172 237.591H176.489L174.559 235.16C171.531 231.337 169.88 226.605 169.873 221.729Z" fill="white" stroke="#444150" stroke-linecap="round" stroke-linejoin="round"/>
<path d="M123.076 232.213H172.584C170.807 229.004 169.874 225.397 169.873 221.729V206.759H125.788V221.729C125.787 225.397 124.854 229.004 123.076 232.213Z" fill="#007AFF"/>
<path d="M230.174 78.5842H65.4796C62.0292 78.5842 59.2322 81.3813 59.2322 84.8316V205.234C59.2322 208.684 62.0292 211.481 65.4796 211.481H230.174C233.624 211.481 236.421 208.684 236.421 205.234V84.8316C236.421 81.3813 233.624 78.5842 230.174 78.5842Z" fill="#444150" stroke="#444150" stroke-linecap="round" stroke-linejoin="round"/>
<path d="M59.2322 190.824H236.428V205.227C236.428 206.883 235.77 208.472 234.599 209.644C233.427 210.816 231.838 211.474 230.181 211.474H65.4869C63.83 211.474 62.241 210.816 61.0694 209.644C59.8978 208.472 59.2395 206.883 59.2395 205.227V190.824H59.2322Z" fill="white" stroke="#444150" stroke-linecap="round" stroke-linejoin="round"/>
<path d="M227.514 86.8575H68.1465V180.745H227.514V86.8575Z" fill="white" stroke="#444150" stroke-linecap="round" stroke-linejoin="round"/>
<path d="M151.101 201.153C151.101 200.506 150.91 199.873 150.55 199.335C150.191 198.797 149.68 198.378 149.082 198.13C148.484 197.883 147.827 197.818 147.192 197.944C146.558 198.071 145.975 198.382 145.517 198.84C145.06 199.297 144.748 199.88 144.622 200.514C144.496 201.149 144.561 201.807 144.808 202.404C145.056 203.002 145.475 203.513 146.013 203.872C146.551 204.232 147.183 204.424 147.83 204.424C148.698 204.424 149.53 204.079 150.143 203.465C150.757 202.852 151.101 202.02 151.101 201.153Z" fill="#444150" stroke="#444150" stroke-linecap="round" stroke-linejoin="round"/>
<path d="M176.496 237.62H119.172V240.295H176.496V237.62Z" fill="white" stroke="#444150" stroke-linecap="round" stroke-linejoin="round"/>
<path d="M226.019 93.4733H69.3989V101.702H226.019V93.4733Z" fill="white" stroke="#444150" stroke-linecap="round" stroke-linejoin="round"/>
<path d="M95.2431 101.703L93.3645 96.6191H69.3989V101.703V108.444V176.745H226.019V101.703H95.2431Z" fill="#007AFF" stroke="#444150" stroke-linecap="round" stroke-linejoin="round"/>
<path d="M111.554 138.914H184.991" stroke="#444150" stroke-width="2" stroke-linecap="round" stroke-linejoin="round"/>
<path d="M111.554 146.134H184.991" stroke="#444150" stroke-width="2" stroke-linecap="round" stroke-linejoin="round"/>
<path d="M111.554 153.354H184.991" stroke="#444150" stroke-width="2" stroke-linecap="round" stroke-linejoin="round"/>
<path d="M111.554 160.581H184.991" stroke="#444150" stroke-width="2" stroke-linecap="round" stroke-linejoin="round"/>
<path d="M181.108 119.664H114.56C113.875 119.665 113.197 119.531 112.563 119.27C111.93 119.008 111.355 118.625 110.87 118.141C110.385 117.658 110 117.083 109.737 116.451C109.474 115.818 109.338 115.14 109.337 114.455C109.336 113.77 109.47 113.092 109.731 112.459C109.992 111.825 110.376 111.25 110.859 110.765C111.343 110.28 111.917 109.895 112.55 109.632C113.182 109.369 113.86 109.233 114.545 109.232H181.108C181.794 109.231 182.474 109.365 183.108 109.627C183.742 109.89 184.318 110.274 184.804 110.76C185.289 111.245 185.674 111.821 185.936 112.455C186.198 113.089 186.332 113.769 186.331 114.455C186.33 115.14 186.195 115.818 185.932 116.451C185.669 117.083 185.284 117.658 184.799 118.141C184.313 118.625 183.738 119.008 183.105 119.27C182.472 119.531 181.793 119.665 181.108 119.664Z" fill="white" stroke="#444150" stroke-linecap="round" stroke-linejoin="round"/>
<path d="M181.108 119.664H172.017V109.217H181.108C181.794 109.216 182.474 109.351 183.108 109.613C183.742 109.875 184.318 110.26 184.804 110.745C185.289 111.23 185.674 111.806 185.936 112.44C186.198 113.075 186.332 113.754 186.331 114.44C186.332 115.127 186.198 115.806 185.936 116.44C185.674 117.075 185.289 117.651 184.804 118.136C184.318 118.621 183.742 119.006 183.108 119.268C182.474 119.53 181.794 119.665 181.108 119.664Z" fill="#444150" stroke="#444150" stroke-linecap="round" stroke-linejoin="round"/>
<path d="M179.082 110.543C178.649 110.138 178.106 109.87 177.52 109.773C176.935 109.676 176.334 109.755 175.794 110C175.254 110.245 174.798 110.645 174.485 111.148C174.172 111.652 174.015 112.238 174.035 112.83C174.055 113.423 174.25 113.997 174.595 114.479C174.941 114.961 175.422 115.33 175.977 115.538C176.532 115.747 177.137 115.786 177.715 115.651C178.292 115.516 178.817 115.213 179.222 114.779C179.492 114.494 179.703 114.157 179.842 113.79C179.982 113.422 180.047 113.03 180.035 112.637C180.022 112.244 179.933 111.858 179.77 111.5C179.608 111.142 179.377 110.819 179.089 110.551L179.082 110.543ZM178.787 114.374C178.462 114.72 178.042 114.961 177.579 115.068C177.117 115.174 176.633 115.142 176.19 114.974C175.746 114.806 175.362 114.51 175.086 114.124C174.81 113.739 174.654 113.279 174.639 112.805C174.623 112.331 174.749 111.863 174.999 111.46C175.25 111.057 175.614 110.737 176.046 110.541C176.478 110.344 176.958 110.281 177.426 110.357C177.895 110.434 178.33 110.647 178.677 110.971C179.143 111.407 179.416 112.011 179.437 112.649C179.457 113.288 179.224 113.908 178.787 114.374Z" fill="white"/>
<path d="M181.336 115.87C181.27 115.805 181.188 115.762 181.097 115.743C181.007 115.725 180.914 115.733 180.828 115.766L179.745 114.75C179.69 114.696 179.616 114.666 179.539 114.666C179.462 114.666 179.388 114.696 179.332 114.75L179.237 114.853C179.184 114.91 179.155 114.985 179.155 115.063C179.155 115.141 179.184 115.216 179.237 115.273L180.305 116.275C180.273 116.366 180.268 116.464 180.29 116.558C180.313 116.652 180.361 116.738 180.43 116.805L182.272 118.61C182.393 118.731 182.558 118.798 182.729 118.798C182.9 118.798 183.064 118.731 183.186 118.61C183.306 118.489 183.374 118.325 183.374 118.153C183.374 117.982 183.306 117.818 183.186 117.697L181.336 115.87Z" fill="white"/>
<path d="M200.358 151.173C200.574 151.707 200.894 152.192 201.3 152.599C201.706 153.007 202.19 153.329 202.723 153.546C203.556 153.884 204.668 153.811 205.95 154.533C208.846 156.161 216.073 154.71 221.311 155.269C226.549 155.829 233.607 150.031 233.607 150.031L254.39 151.173V130.545C254.39 130.545 232.701 131.451 228 129.639C223.3 127.827 218.062 124.04 215.712 124.217C213.362 124.393 194.023 126.567 194.023 126.567L200.351 151.173H200.358Z" fill="white" stroke="#444150" stroke-linecap="round" stroke-linejoin="round"/>
<path d="M194.98 67.9975C190.689 68.4725 186.635 70.2093 183.331 72.9883C180.027 75.7673 177.621 79.4636 176.418 83.6099C175.215 87.7563 175.268 92.1663 176.571 96.2823C177.874 100.398 180.368 104.036 183.739 106.734C187.109 109.432 191.203 111.071 195.505 111.442C199.806 111.813 204.121 110.901 207.904 108.82C211.687 106.739 214.767 103.583 216.756 99.7509C218.745 95.919 219.554 91.5834 219.079 87.2922C218.765 84.4422 217.893 81.682 216.512 79.1694C215.13 76.6569 213.267 74.4412 211.029 72.6492C208.791 70.8572 206.222 69.5239 203.468 68.7258C200.714 67.9276 197.83 67.6801 194.98 67.9975ZM199.312 107.103C195.87 107.485 192.392 106.838 189.317 105.244C186.242 103.649 183.709 101.179 182.039 98.1449C180.368 95.111 179.635 91.6498 179.931 88.199C180.228 84.7482 181.541 81.4628 183.704 78.7583C185.868 76.0537 188.785 74.0515 192.086 73.0048C195.388 71.9581 198.926 71.9139 202.252 72.8778C205.579 73.8418 208.545 75.7705 210.776 78.4202C213.006 81.0698 214.401 84.3214 214.783 87.7637C215.037 90.0494 214.839 92.3627 214.199 94.5716C213.559 96.7804 212.49 98.8416 211.053 100.637C209.617 102.433 207.84 103.928 205.826 105.038C203.811 106.147 201.598 106.849 199.312 107.103Z" fill="white" stroke="#444150" stroke-linecap="round" stroke-linejoin="round"/>
<path d="M194.862 66.7524C190.571 67.2274 186.517 68.9642 183.213 71.7432C179.909 74.5222 177.503 78.2186 176.3 82.3649C175.097 86.5112 175.15 90.9212 176.453 95.0373C177.756 99.1534 180.25 102.791 183.621 105.489C186.991 108.187 191.086 109.826 195.387 110.197C199.688 110.568 204.003 109.656 207.786 107.575C211.569 105.494 214.649 102.338 216.638 98.5059C218.628 94.674 219.436 90.3383 218.961 86.0472C218.322 80.2937 215.425 75.0294 210.906 71.4113C206.387 67.7932 200.616 66.1175 194.862 66.7524ZM199.194 105.858C195.752 106.24 192.274 105.593 189.199 103.999C186.124 102.404 183.592 99.9338 181.921 96.8999C180.25 93.8659 179.517 90.4047 179.813 86.9539C180.11 83.5032 181.423 80.2178 183.586 77.5132C185.75 74.8087 188.667 72.8065 191.969 71.7598C195.27 70.7131 198.808 70.6689 202.135 71.6328C205.461 72.5967 208.427 74.5255 210.658 77.1751C212.888 79.8248 214.283 83.0764 214.666 86.5187C214.92 88.8043 214.721 91.1176 214.081 93.3265C213.441 95.5354 212.372 97.5966 210.935 99.3924C209.499 101.188 207.722 102.683 205.708 103.793C203.693 104.902 201.48 105.604 199.194 105.858Z" fill="white" stroke="#444150" stroke-linecap="round" stroke-linejoin="round"/>
<path d="M200.385 110.551L199.353 110.665C198.188 110.794 197.348 111.843 197.477 113.007L199.153 128.136C199.282 129.3 200.33 130.14 201.495 130.011L202.528 129.897C203.692 129.768 204.532 128.719 204.403 127.554L202.727 112.426C202.598 111.261 201.55 110.422 200.385 110.551Z" fill="#007AFF" stroke="#444150" stroke-linecap="round" stroke-linejoin="round"/>
<path d="M200.049 123.178L202.259 122.942C203.21 122.84 204.162 123.118 204.909 123.713C205.657 124.309 206.139 125.176 206.252 126.125L209.56 156.043C209.694 157.266 209.338 158.492 208.568 159.453C207.799 160.413 206.68 161.028 205.457 161.163H205.309C204.703 161.231 204.09 161.178 203.505 161.008C202.919 160.839 202.373 160.555 201.898 160.174C201.422 159.793 201.026 159.321 200.733 158.787C200.44 158.253 200.255 157.666 200.189 157.06L196.881 127.149C196.828 126.675 196.869 126.196 197.001 125.738C197.133 125.28 197.355 124.852 197.652 124.48C197.95 124.108 198.318 123.798 198.736 123.568C199.153 123.338 199.612 123.193 200.086 123.141L200.049 123.178Z" fill="#444150" stroke="#444150" stroke-linecap="round" stroke-linejoin="round"/>
<path d="M203.261 148.109C203.261 148.109 198.023 148.3 197.286 149.206C196.55 150.112 196.682 153.266 198.104 153.627C201.729 154.577 209.435 154.024 209.737 153.376C210.039 152.728 210.658 148.956 209.067 148.551C207.145 148.256 205.205 148.108 203.261 148.109Z" fill="white" stroke="#444150" stroke-linecap="round" stroke-linejoin="round"/>
<path d="M201.751 140.8C201.751 140.8 195.658 140.572 194.708 141.67C193.758 142.767 193.573 146.871 195.179 147.49C199.276 149.059 208.492 148.447 208.912 147.637C209.332 146.827 210.245 142.62 208.44 141.942C206.635 141.264 201.751 140.8 201.751 140.8Z" fill="white" stroke="#444150" stroke-linecap="round" stroke-linejoin="round"/>
<path d="M200.874 132.549C200.874 132.549 194.361 132.299 193.345 133.477C192.328 134.656 192.129 139.032 193.846 139.695C198.266 141.375 207.843 141.375 208.293 140.506C208.742 139.636 209.95 134.494 208.02 133.765C206.09 133.035 200.874 132.549 200.874 132.549Z" fill="white" stroke="#444150" stroke-linecap="round" stroke-linejoin="round"/>
<path d="M197.117 124.828C197.117 124.828 190.604 124.585 189.588 125.756C188.571 126.928 188.328 131.444 190.089 131.974C191.849 132.505 204.086 133.654 204.536 132.792C204.985 131.93 206.193 126.773 204.263 126.044C202.333 125.314 197.117 124.828 197.117 124.828Z" fill="white" stroke="#444150" stroke-linecap="round" stroke-linejoin="round"/>
<path d="M218.445 146.495C217.276 146.174 216.168 145.661 215.166 144.977C209.928 141.36 210.105 133.05 210.105 133.05L208.845 132.689C207.805 132.293 206.829 131.744 205.95 131.061C206.372 132.777 206.619 134.532 206.687 136.299C206.668 137.27 206.289 138.199 205.623 138.905C204.957 139.612 204.052 140.046 203.084 140.122C201.456 140.307 200.734 140.483 200.189 138.318C199.644 136.152 196.94 127.473 196.756 126.206C196.594 125.057 198.524 123.008 201.596 122.522C206.318 122.905 210.975 124.224 215.734 124.224C217.39 124.379 218.977 124.963 220.338 125.919" fill="white"/>
<path d="M218.445 146.495C217.276 146.174 216.168 145.661 215.166 144.977C209.928 141.36 210.105 133.05 210.105 133.05L208.845 132.689C207.805 132.293 206.829 131.744 205.95 131.061C206.372 132.777 206.619 134.532 206.687 136.299C206.668 137.27 206.289 138.199 205.623 138.905C204.957 139.612 204.052 140.046 203.084 140.122C201.456 140.307 200.734 140.483 200.189 138.318C199.644 136.152 196.94 127.473 196.756 126.206C196.594 125.057 198.524 123.008 201.596 122.522C206.318 122.905 210.975 124.224 215.734 124.224C217.39 124.379 218.977 124.963 220.338 125.919" stroke="#444150" stroke-linecap="round" stroke-linejoin="round"/>
<path d="M223.425 146.952C222.851 146.981 222.275 146.981 221.701 146.952H223.425Z" fill="white"/>
<path d="M223.425 146.952C222.851 146.981 222.275 146.981 221.701 146.952" stroke="#444150" stroke-linecap="round" stroke-linejoin="round"/>
<path d="M227.278 146.237C226.027 146.633 224.734 146.88 223.425 146.974L227.278 146.237Z" fill="white"/>
<path d="M227.278 146.237C226.027 146.633 224.734 146.88 223.425 146.974" stroke="#444150" stroke-linecap="round" stroke-linejoin="round"/>
<path d="M233.783 143.895H240.289" stroke="#444150" stroke-linecap="round" stroke-linejoin="round"/>
<path d="M234.329 145.699H237.04" stroke="#444150" stroke-linecap="round" stroke-linejoin="round"/>
<path d="M210.105 133.05C210.105 133.05 213.7 133.05 216.058 130.906" stroke="#444150" stroke-linecap="round" stroke-linejoin="round"/>
<path d="M205.869 130.825C205.765 129.844 205.561 128.876 205.258 127.937" stroke="#444150" stroke-linecap="round" stroke-linejoin="round"/>
<path d="M200.137 137.367C200.137 137.367 199.452 135.466 200.285 134.781C201.117 134.096 203.327 133.109 203.711 133.868C204.094 134.627 204.926 138.126 204.698 138.811L204.469 139.496" stroke="#444150" stroke-width="0.5" stroke-linecap="round" stroke-linejoin="round"/>
<path d="M300 160.419H237.71V129.801H300" fill="#007AFF"/>
<path d="M300 160.419H237.71V129.801H300" stroke="#444150" stroke-linecap="round" stroke-linejoin="round"/>
<path d="M242.278 158.371C243.051 158.371 243.678 157.744 243.678 156.971C243.678 156.198 243.051 155.572 242.278 155.572C241.505 155.572 240.878 156.198 240.878 156.971C240.878 157.744 241.505 158.371 242.278 158.371Z" fill="white" stroke="#444150" stroke-linecap="round" stroke-linejoin="round"/>
<path d="M143.285 100.642C143.818 100.426 144.303 100.106 144.711 99.6999C145.118 99.2937 145.44 98.8097 145.657 98.2767C145.996 97.4442 145.915 96.3391 146.644 95.0499C148.265 92.1619 146.821 84.9347 147.381 79.6892C147.941 74.4438 142.135 67.4007 142.135 67.4007L143.263 46.6178H122.634C122.634 46.6178 123.533 68.3069 121.728 72.9998C119.923 77.6927 116.129 82.9455 116.306 85.2957C116.483 87.6458 118.671 106.97 118.671 106.97L143.248 100.642H143.285Z" fill="white" stroke="#444150" stroke-linecap="round" stroke-linejoin="round"/>
<path d="M60.1605 106.005C60.6323 110.297 62.3662 114.352 65.1429 117.658C67.9196 120.964 71.6143 123.373 75.7599 124.579C79.9055 125.786 84.3157 125.735 88.4328 124.435C92.5499 123.135 96.1889 120.643 98.8897 117.274C101.59 113.906 103.232 109.812 103.606 105.511C103.98 101.21 103.07 96.8939 100.991 93.1098C98.9126 89.3256 95.7584 86.2428 91.9277 84.2513C88.0969 82.2598 83.7615 81.449 79.47 81.9215H79.4184C73.6737 82.5677 68.4198 85.4662 64.8095 89.9811C61.1992 94.4961 59.5272 100.259 60.1605 106.005ZM99.2067 101.666C99.5904 105.109 98.9444 108.589 97.3503 111.666C95.7563 114.742 93.2858 117.277 90.2512 118.949C87.2166 120.622 83.7543 121.357 80.302 121.061C76.8497 120.766 73.5626 119.454 70.8561 117.29C68.1497 115.127 66.1456 112.209 65.0972 108.907C64.0488 105.604 64.0032 102.065 64.9662 98.7366C65.9293 95.4082 67.8576 92.4402 70.5074 90.2077C73.1572 87.9752 76.4095 86.5786 79.853 86.1945C84.4708 85.6814 89.1033 87.0228 92.7324 89.9238C96.3615 92.8249 98.6903 97.0483 99.2067 101.666Z" fill="white" stroke="#444150" stroke-linecap="round" stroke-linejoin="round"/>
<path d="M58.886 106.137C59.3622 110.426 61.0994 114.478 63.8779 117.78C66.6563 121.081 70.3514 123.485 74.4959 124.687C78.6404 125.889 83.0483 125.836 87.1622 124.533C91.2762 123.23 94.9115 120.737 97.6087 117.368C100.306 114 101.944 109.907 102.315 105.608C102.687 101.308 101.775 96.9955 99.6956 93.2142C97.6162 89.433 94.4624 86.3531 90.6328 84.364C86.8033 82.3749 82.47 81.5659 78.1807 82.0393C75.3311 82.3538 72.5714 83.2267 70.0593 84.6081C67.5472 85.9896 65.3319 87.8525 63.5401 90.0904C61.7482 92.3283 60.4149 94.8974 59.6164 97.6508C58.8178 100.404 58.5696 103.288 58.886 106.137ZM97.9911 101.813C98.3736 105.255 97.7266 108.734 96.1322 111.808C94.5377 114.883 92.0673 117.416 89.0334 119.086C85.9995 120.757 82.5383 121.491 79.0875 121.194C75.6367 120.898 72.3513 119.585 69.6468 117.421C66.9422 115.257 64.94 112.34 63.8933 109.039C62.8466 105.737 62.8024 102.199 63.7664 98.8727C64.7303 95.5461 66.659 92.58 69.3087 90.3495C71.9583 88.119 75.2099 86.7243 78.6522 86.3417C80.9379 86.0877 83.2512 86.2864 85.4601 86.9265C87.6689 87.5665 89.7301 88.6354 91.5259 90.072C93.3217 91.5086 94.817 93.2849 95.9263 95.2994C97.0356 97.3139 97.7372 99.5272 97.9911 101.813Z" fill="white" stroke="#444150" stroke-linecap="round" stroke-linejoin="round"/>
<path d="M119.693 96.6086L104.565 98.2841C103.4 98.4131 102.56 99.4619 102.689 100.627L102.804 101.659C102.933 102.824 103.981 103.663 105.146 103.534L120.274 101.859C121.439 101.73 122.279 100.681 122.15 99.5164L122.035 98.4839C121.906 97.3192 120.858 96.4796 119.693 96.6086Z" fill="#007AFF" stroke="#444150" stroke-linecap="round" stroke-linejoin="round"/>
<path d="M115.311 100.958L115.068 98.7482C114.963 97.7908 115.242 96.8308 115.844 96.0792C116.447 95.3276 117.323 94.846 118.28 94.7405L148.191 91.4326C148.8 91.3619 149.416 91.412 150.005 91.5802C150.594 91.7484 151.143 92.0313 151.623 92.4126C152.102 92.7939 152.501 93.2661 152.797 93.8022C153.093 94.3382 153.281 94.9275 153.348 95.5361V95.6835C153.419 96.2918 153.369 96.9081 153.201 97.4969C153.032 98.0858 152.75 98.6356 152.368 99.1148C151.987 99.594 151.515 99.9932 150.979 100.289C150.443 100.585 149.853 100.773 149.245 100.841L119.334 104.148C118.378 104.256 117.418 103.981 116.664 103.384C115.911 102.786 115.424 101.914 115.311 100.958Z" fill="#444150" stroke="#444150" stroke-linecap="round" stroke-linejoin="round"/>
<path d="M140.235 97.7463C140.235 97.7463 140.434 102.977 141.332 103.714C142.231 104.45 145.399 104.318 145.753 102.896C146.71 99.2787 146.15 91.5652 145.502 91.2705C144.854 90.9758 141.082 90.3422 140.684 91.9409C140.387 93.8618 140.237 95.8026 140.235 97.7463Z" fill="white" stroke="#444150" stroke-linecap="round" stroke-linejoin="round"/>
<path d="M132.934 99.2493C132.934 99.2493 132.698 105.342 133.796 106.292C134.893 107.243 138.997 107.434 139.616 105.821C141.192 101.725 140.573 92.5082 139.763 92.0957C138.953 91.6831 134.746 90.7622 134.068 92.5672C133.39 94.3721 132.934 99.2493 132.934 99.2493Z" fill="white" stroke="#444150" stroke-linecap="round" stroke-linejoin="round"/>
<path d="M124.682 100.141C124.682 100.141 124.432 106.653 125.603 107.67C126.775 108.687 131.166 108.885 131.829 107.162C133.508 102.785 133.508 93.1639 132.639 92.7218C131.77 92.2798 126.62 91.0642 125.898 92.9944C125.176 94.9246 124.682 100.141 124.682 100.141Z" fill="white" stroke="#444150" stroke-linecap="round" stroke-linejoin="round"/>
<path d="M116.962 103.891C116.962 103.891 116.711 110.403 117.89 111.42C119.069 112.437 123.577 112.68 124.108 110.912C124.638 109.143 125.788 96.9138 124.918 96.4644C124.049 96.015 118.907 94.8142 118.177 96.7444C117.448 98.6746 116.962 103.891 116.962 103.891Z" fill="white" stroke="#444150" stroke-linecap="round" stroke-linejoin="round"/>
<path d="M139.078 77.5601C139.378 80.462 138.682 83.3798 137.104 85.8334C133.494 91.0789 125.176 90.8947 125.176 90.8947L124.815 92.1619C124.422 93.2015 123.873 94.1754 123.187 95.0498C124.906 94.6279 126.664 94.3811 128.432 94.3131C129.4 94.3412 130.323 94.7262 131.023 95.3941C131.724 96.062 132.152 96.9654 132.227 97.9304C132.411 99.5586 132.587 100.281 130.422 100.818C128.256 101.356 119.577 104.075 118.31 104.259C117.161 104.421 115.112 102.491 114.626 99.4186C115.017 94.6962 116.335 90.0327 116.335 85.2809C116.49 83.6224 117.074 82.0328 118.03 80.669" fill="white"/>
<path d="M139.078 77.5601C139.378 80.462 138.682 83.3798 137.104 85.8334C133.494 91.0789 125.176 90.8947 125.176 90.8947L124.815 92.1619C124.422 93.2015 123.873 94.1753 123.187 95.0498C124.906 94.6279 126.664 94.3811 128.432 94.3131C129.4 94.3412 130.323 94.7262 131.023 95.3941C131.724 96.062 132.152 96.9654 132.227 97.9304C132.411 99.5586 132.587 100.281 130.422 100.818C128.256 101.356 119.577 104.075 118.31 104.259C117.161 104.421 115.112 102.491 114.626 99.4186C115.017 94.6962 116.335 90.0327 116.335 85.2809C116.49 83.6224 117.074 82.0328 118.03 80.669" stroke="#444150" stroke-linecap="round" stroke-linejoin="round"/>
<path d="M138.371 73.7291C138.589 74.4183 138.756 75.1225 138.872 75.8361L138.371 73.7291Z" fill="white"/>
<path d="M138.371 73.7291C138.589 74.4183 138.756 75.1225 138.872 75.8361" stroke="#444150" stroke-linecap="round" stroke-linejoin="round"/>
<path d="M136.021 67.2165V60.7113" stroke="#444150" stroke-linecap="round" stroke-linejoin="round"/>
<path d="M137.825 66.6788V63.9677" stroke="#444150" stroke-linecap="round" stroke-linejoin="round"/>
<path d="M125.176 90.8947C125.176 90.8947 125.176 87.2995 123.032 84.942" stroke="#444150" stroke-linecap="round" stroke-linejoin="round"/>
<path d="M122.959 95.1383C121.978 95.2394 121.01 95.4418 120.071 95.7424" stroke="#444150" stroke-linecap="round" stroke-linejoin="round"/>
<path d="M129.501 100.84C129.501 100.84 127.6 101.526 126.915 100.686C126.23 99.8459 125.242 97.6431 126.001 97.2674C126.76 96.8917 130.259 96.0518 130.945 96.2802L131.63 96.5012" stroke="#444150" stroke-width="0.5" stroke-linecap="round" stroke-linejoin="round"/>
<path d="M152.553 1V63.2898H121.927V1" fill="#007AFF"/>
<path d="M152.553 1V63.2898H121.927V1" stroke="#444150" stroke-linecap="round" stroke-linejoin="round"/>
<path d="M149.098 60.1218C149.871 60.1218 150.497 59.4951 150.497 58.722C150.497 57.949 149.871 57.3223 149.098 57.3223C148.324 57.3223 147.698 57.949 147.698 58.722C147.698 59.4951 148.324 60.1218 149.098 60.1218Z" fill="white" stroke="#444150" stroke-linecap="round" stroke-linejoin="round"/>
<path d="M112.468 211.585C112.253 212.119 111.934 212.604 111.527 213.012C111.121 213.42 110.636 213.741 110.103 213.957C109.27 214.303 108.165 214.222 106.876 214.944C103.988 216.572 96.7606 215.128 91.5152 215.681C86.2697 216.233 79.2266 210.443 79.2266 210.443L58.4216 211.585V190.956C58.4216 190.956 80.1107 191.862 84.811 190.058C89.5113 188.253 94.7494 184.451 97.0995 184.635C99.4496 184.819 118.789 186.985 118.789 186.985L112.468 211.585Z" fill="white" stroke="#444150" stroke-linecap="round" stroke-linejoin="round"/>
<path d="M117.809 128.453C122.1 128.928 126.154 130.665 129.458 133.444C132.762 136.223 135.168 139.919 136.371 144.065C137.575 148.212 137.521 152.622 136.218 156.738C134.915 160.854 132.421 164.491 129.051 167.189C125.68 169.888 121.586 171.526 117.284 171.898C112.983 172.269 108.668 171.356 104.885 169.275C101.103 167.194 98.0219 164.038 96.0328 160.206C94.0438 156.374 93.2356 152.039 93.7107 147.748C94.3477 141.995 97.2436 136.732 101.762 133.114C106.279 129.497 112.049 127.823 117.801 128.46L117.809 128.453ZM113.477 167.558C116.92 167.942 120.401 167.296 123.477 165.702C126.553 164.108 129.088 161.637 130.76 158.602C132.433 155.568 133.168 152.106 132.872 148.653C132.577 145.201 131.265 141.914 129.101 139.207C126.938 136.501 124.02 134.497 120.718 133.448C117.415 132.4 113.876 132.354 110.548 133.317C107.219 134.28 104.251 136.209 102.019 138.859C99.7865 141.508 98.3899 144.761 98.0058 148.204C97.4926 152.822 98.834 157.455 101.735 161.084C104.636 164.713 108.86 167.041 113.477 167.558Z" fill="white" stroke="#444150" stroke-linecap="round" stroke-linejoin="round"/>
<path d="M117.942 127.208C122.231 127.684 126.282 129.422 129.584 132.201C132.886 134.979 135.29 138.675 136.491 142.82C137.693 146.965 137.639 151.373 136.335 155.487C135.032 159.601 132.538 163.236 129.168 165.933C125.799 168.63 121.706 170.267 117.406 170.637C113.107 171.008 108.794 170.095 105.013 168.014C101.232 165.934 98.1524 162.779 96.1644 158.949C94.1763 155.118 93.3686 150.784 93.8434 146.495C94.1588 143.646 95.0324 140.887 96.4142 138.376C97.796 135.865 99.6591 133.65 101.897 131.859C104.135 130.068 106.704 128.735 109.457 127.937C112.21 127.139 115.093 126.891 117.942 127.208ZM113.61 166.313C117.053 166.697 120.533 166.051 123.61 164.457C126.686 162.862 129.221 160.392 130.893 157.357C132.566 154.323 133.301 150.86 133.005 147.408C132.71 143.956 131.398 140.669 129.234 137.962C127.071 135.256 124.153 133.252 120.851 132.203C117.548 131.155 114.009 131.109 110.681 132.072C107.352 133.035 104.384 134.964 102.152 137.614C99.9192 140.263 98.5226 143.516 98.1385 146.959C97.6276 151.575 98.9701 156.205 101.871 159.831C104.772 163.457 108.994 165.783 113.61 166.298V166.313Z" fill="white" stroke="#444150" stroke-linecap="round" stroke-linejoin="round"/>
<path d="M110.072 172.882L108.396 188.01C108.267 189.175 109.107 190.223 110.271 190.352L111.304 190.467C112.469 190.596 113.517 189.756 113.646 188.592L115.322 173.463C115.451 172.299 114.611 171.25 113.447 171.121L112.414 171.007C111.249 170.878 110.201 171.717 110.072 172.882Z" fill="#007AFF" stroke="#444150" stroke-linecap="round" stroke-linejoin="round"/>
<path d="M107.51 221.648H107.362C106.753 221.581 106.163 221.395 105.627 221.099C105.09 220.803 104.618 220.404 104.236 219.924C103.855 219.445 103.572 218.895 103.404 218.305C103.236 217.716 103.187 217.1 103.259 216.491L106.567 186.58C106.618 186.106 106.762 185.646 106.992 185.228C107.221 184.809 107.531 184.44 107.903 184.142C108.276 183.843 108.703 183.621 109.162 183.489C109.62 183.356 110.1 183.315 110.574 183.368L112.785 183.611C113.742 183.717 114.618 184.198 115.221 184.95C115.823 185.701 116.102 186.662 115.997 187.619L112.689 217.567C112.62 218.175 112.432 218.764 112.136 219.299C111.839 219.835 111.44 220.307 110.961 220.688C110.482 221.069 109.933 221.352 109.344 221.52C108.756 221.689 108.14 221.74 107.532 221.67L107.51 221.648Z" fill="#444150" stroke="#444150" stroke-linecap="round" stroke-linejoin="round"/>
<path d="M109.521 208.557C109.521 208.557 114.752 208.755 115.488 209.654C116.225 210.553 116.092 213.714 114.671 214.075C111.053 215.032 103.34 214.472 103.045 213.824C102.75 213.176 102.117 209.404 103.715 208.999C105.637 208.704 107.577 208.556 109.521 208.557Z" fill="white" stroke="#444150" stroke-linecap="round" stroke-linejoin="round"/>
<path d="M111.053 201.27C111.053 201.27 117.146 201.035 118.096 202.132C119.047 203.23 119.238 207.334 117.625 207.952C113.529 209.522 104.312 208.91 103.9 208.1C103.487 207.289 102.566 203.083 104.371 202.405C106.176 201.727 111.053 201.27 111.053 201.27Z" fill="white" stroke="#444150" stroke-linecap="round" stroke-linejoin="round"/>
<path d="M111.945 192.997C111.945 192.997 118.457 192.754 119.474 193.925C120.491 195.097 120.689 199.488 118.973 200.143C114.553 201.83 104.975 201.823 104.526 200.961C104.076 200.099 102.868 194.942 104.798 194.213C106.729 193.483 111.945 192.997 111.945 192.997Z" fill="white" stroke="#444150" stroke-linecap="round" stroke-linejoin="round"/>
<path d="M115.694 185.283C115.694 185.283 122.207 185.033 123.224 186.204C124.24 187.376 124.484 191.899 122.715 192.43C120.947 192.96 108.718 194.102 108.268 193.24C107.819 192.378 106.618 187.221 108.548 186.499C110.478 185.777 115.694 185.283 115.694 185.283Z" fill="white" stroke="#444150" stroke-linecap="round" stroke-linejoin="round"/>
<path d="M90.366 207.437C92.9352 207.538 95.472 206.835 97.6227 205.425C102.868 201.808 102.684 193.498 102.684 193.498L103.951 193.137C104.991 192.744 105.965 192.195 106.839 191.509C106.417 193.225 106.17 194.98 106.102 196.747C106.13 197.715 106.515 198.639 107.183 199.341C107.85 200.042 108.754 200.472 109.72 200.548C111.348 200.725 112.07 200.909 112.615 198.736C113.16 196.563 115.864 187.892 116.048 186.632C116.232 185.372 114.28 183.427 111.208 182.948C106.485 183.339 101.822 184.657 97.0701 184.657C95.4129 184.812 93.824 185.393 92.4583 186.344" fill="white"/>
<path d="M90.366 207.437C92.9352 207.538 95.472 206.835 97.6227 205.425C102.868 201.808 102.684 193.498 102.684 193.498L103.951 193.137C104.991 192.744 105.965 192.195 106.839 191.509C106.417 193.225 106.17 194.98 106.102 196.747C106.13 197.715 106.515 198.639 107.183 199.341C107.85 200.042 108.754 200.472 109.72 200.548C111.348 200.725 112.07 200.909 112.615 198.736C113.16 196.563 115.864 187.892 116.048 186.632C116.232 185.372 114.28 183.427 111.208 182.948C106.485 183.339 101.822 184.657 97.0701 184.657C95.4129 184.812 93.824 185.393 92.4583 186.344" stroke="#444150" stroke-linecap="round" stroke-linejoin="round"/>
<path d="M85.5332 206.693C86.5632 207.009 87.6218 207.224 88.6937 207.334L85.5332 206.693Z" fill="white"/>
<path d="M85.5332 206.693C86.5632 207.009 87.6218 207.224 88.6937 207.334" stroke="#444150" stroke-linecap="round" stroke-linejoin="round"/>
<path d="M79.0204 204.343H72.5151" stroke="#444150" stroke-linecap="round" stroke-linejoin="round"/>
<path d="M78.4826 206.147H75.7715" stroke="#444150" stroke-linecap="round" stroke-linejoin="round"/>
<path d="M102.699 193.498C102.699 193.498 99.1036 193.498 96.7461 191.354" stroke="#444150" stroke-linecap="round" stroke-linejoin="round"/>
<path d="M106.942 191.273C107.043 190.292 107.246 189.324 107.546 188.385" stroke="#444150" stroke-linecap="round" stroke-linejoin="round"/>
<path d="M112.644 197.815C112.644 197.815 113.33 195.914 112.49 195.229C111.65 194.544 109.447 193.557 109.071 194.316C108.696 195.074 107.856 198.581 108.084 199.259L108.313 199.944" stroke="#444150" stroke-width="0.5" stroke-linecap="round" stroke-linejoin="round"/>
<path d="M12.804 220.875H75.0937V190.249H12.804" fill="#007AFF"/>
<path d="M12.804 220.875H75.0937V190.249H12.804" stroke="#444150" stroke-linecap="round" stroke-linejoin="round"/>
<path d="M69.1265 217.419C69.1265 217.696 69.2086 217.967 69.3624 218.197C69.5162 218.427 69.7348 218.607 69.9906 218.713C70.2463 218.818 70.5278 218.846 70.7993 218.792C71.0708 218.738 71.3203 218.605 71.516 218.409C71.7118 218.213 71.8451 217.964 71.8991 217.692C71.9531 217.421 71.9254 217.139 71.8195 216.884C71.7135 216.628 71.5341 216.409 71.3039 216.255C71.0737 216.102 70.8031 216.02 70.5262 216.02C70.155 216.02 69.799 216.167 69.5365 216.43C69.2739 216.692 69.1265 217.048 69.1265 217.419Z" fill="white" stroke="#444150" stroke-linecap="round" stroke-linejoin="round"/>
</svg>
